# xmcd
#
# Track frame offsets:
#	150
#	19424
#	42138
#	57664
#	71521
#	91771
#	106625
#	131310
#	146284
#	163869
#	173824
#	189881
#	214104
#	234176
#	253121
#	268654
#
# Disc length: 3822 seconds
#
# Revision: 0
# Processed by: cddbd v1.5.2PL0 Copyright (c) Steve Scherf et al.
# Submitted via: audiograbber 1.83.01
#
DISCID=d40eec10
DTITLE=John Denver - #40 Country Karaoke Classics
DYEAR=1900
DGENRE=Country
TTITLE0=Leaving On A Jet Plane
TTITLE1=Rocky Mountain High
TTITLE2=Thank God I'm A Country Boy
TTITLE3=Follow Me
TTITLE4=Fly Away
TTITLE5=Annie's Song
TTITLE6=Sunshine On My Shoulders
TTITLE7=Shanghai Breezes
TTITLE8=Calypso
TTITLE9=Blackbird Fly
TTITLE10=I'm Sorry
TTITLE11=Back Home Again
TTITLE12=Some Days Are Diamonds
TTITLE13=Mr. Bojangles
TTITLE14=Take Me Home Country Roads
TTITLE15=Starry Starry Nights
EXTD=
EXTT0=
EXTT1=
EXTT2=
EXTT3=
EXTT4=
EXTT5=
EXTT6=
EXTT7=
EXTT8=
EXTT9=
EXTT10=
EXTT11=
EXTT12=
EXTT13=
EXTT14=
EXTT15=
PLAYORDER=
